<svg xmlns="http://www.w3.org/2000/svg" viewBox="0 0 720 720">
  <defs>
    <style>
      .ab694aa4-7cc8-4fc6-8d5b-34d9ca28eabf {
        fill: #423c3c;
      }

      .b76e1b82-847f-4e87-ab08-446c46192e10, .bf7eadd9-0603-4971-8804-4fed7a276f76 {
        fill: #b81321;
      }

      .bf7eadd9-0603-4971-8804-4fed7a276f76 {
        font-size: 48px;
        font-family: Suissnord;
      }
    </style>
  </defs>
  <g id="ad3a298f-5617-41f3-8cc5-7100606a4be1" data-name="Layer 3 Image">
    <polygon class="ab694aa4-7cc8-4fc6-8d5b-34d9ca28eabf" points="112.75 466.11 211.83 390.74 238.28 444.41 277.97 355.59 292.71 392.25 345.24 252.79 367.92 323.85 422.35 201.39 491.13 385.45 513.81 328.38 558.03 440.25 608.23 470.91 518.35 298.14 495.67 316.47 425.75 162.03 370.19 248.63 349.02 207.44 241.69 375.62 217.87 342.36 112.75 466.11"/>
  </g>
  <g id="fd5e925b-7f3e-4d3f-92af-1efc6ec39627" data-name="Layer 1 Image">
    <g>
      <path class="b76e1b82-847f-4e87-ab08-446c46192e10" d="M322.9,342.55c-2.55,1.2-5,2.53-7.39,3.92-5.77,3.33-11.53,6.67-17.16,10.23-7.15,4.51-14.17,9.21-20.91,14.32-4.47,3.4-8.8,7-13,10.76A82.56,82.56,0,0,0,249,400c-.66,1.1-1.25,2.23-1.87,3.35a3.21,3.21,0,0,1-5.39.79,77.86,77.86,0,0,1-13.63-18.23,39.31,39.31,0,0,1-4.73-18.7,65.92,65.92,0,0,1,3-20.12,71.71,71.71,0,0,1,11.54-21.23,98.83,98.83,0,0,1,11-12.15,164,164,0,0,1,24.51-18.65,245.43,245.43,0,0,1,24.87-13.59q11.44-5.46,23.35-9.85c2-.73,4-1.47,6-2.14,1.18-.39,2.57-.76,3.42.45s.14,2.3-.6,3.3a13.06,13.06,0,0,1-1.09,1.27q-11.52,11.55-23.06,23.09c-.34.33-1.09.66-.72,1.2s1,0,1.41-.2c10.77-4.54,21.78-8.44,32.91-12,8.92-2.85,17.92-5.42,27-7.78q11.28-2.94,22.63-5.57c10.78-2.51,21.61-4.77,32.48-6.86,9.8-1.88,19.64-3.6,29.49-5.28,6.86-1.17,13.75-2.16,20.63-3.2s13.77-2.07,20.66-3.05c4.49-.63,9-1.16,13.49-1.74,4.06-.53,8.12-1.11,12.18-1.62,3.55-.45,7.11-.83,10.66-1.26,1.7-.2,3.39-.45,5.09-.64a8.15,8.15,0,0,1,1.91,0,2.51,2.51,0,0,1,2.08,2.17,2.84,2.84,0,0,1-1.82,2.79c-4.4,1.44-8.81,2.81-13.2,4.27-8.7,2.9-17.41,5.77-26.07,8.79-13.21,4.6-26.36,9.36-39.42,14.38-8.56,3.28-17.09,6.65-25.6,10-10.35,4.14-20.62,8.49-30.85,12.93-8.56,3.7-17.08,7.5-25.62,11.25a1.23,1.23,0,0,0-.84,1.28c.13,7.54-2.31,14.52-4.84,21.45-2,5.42-4.22,10.75-6.43,16.09-1.72,4.17-3.7,8.22-5.67,12.28q-4.57,9.42-9.58,18.62-8.7,16-18.19,31.47-10.28,16.86-21.1,33.35-8.75,13.36-17.8,26.52c-5.57,8.12-11.26,16.15-17,24.16-4.2,5.87-8.53,11.64-12.81,17.44-.57.77-1.24,1.42-2.32.82a2.67,2.67,0,0,1-1.15-2.78l7.93-21.16q3.8-10.12,7.6-20.26,5.76-15.33,11.5-30.68,5.5-14.69,11-29.37,5.65-15.12,11.34-30.23,4.06-10.86,8.13-21.72,3.61-9.69,7.25-19.37A2.26,2.26,0,0,0,322.9,342.55Z"/>
      <path class="b76e1b82-847f-4e87-ab08-446c46192e10" d="M209.71,288.9A28,28,0,0,1,214,273c2.78-4.48,6.53-7.72,11.79-8.89a15.41,15.41,0,0,1,14,3.77c5,4.33,7.52,10.05,8.45,16.45a30.64,30.64,0,0,1-2.56,18c-2.7,5.57-6.6,10-12.93,11.52-6.76,1.59-12.26-.88-16.64-5.95a27.53,27.53,0,0,1-6.32-15.47A31.05,31.05,0,0,1,209.71,288.9Z"/>
    </g>
  </g>
  <g id="e046bd16-ce34-4ccd-b7dc-222ec2b453a8" data-name="PEAK">
    <text class="bf7eadd9-0603-4971-8804-4fed7a276f76" transform="translate(272.64 144.42) rotate(-16.46)">P</text>
    <text class="bf7eadd9-0603-4971-8804-4fed7a276f76" transform="matrix(1, -0.06, 0.06, 1, 323.57, 130.24)">E</text>
    <text class="bf7eadd9-0603-4971-8804-4fed7a276f76" transform="translate(377.48 128.1) rotate(9.81)">A</text>
    <text class="bf7eadd9-0603-4971-8804-4fed7a276f76" transform="translate(429.43 138.05) rotate(22.77)">K</text>
  </g>
  <g id="e1de4cc5-e5aa-4aa8-9c07-ae81e9458299" data-name="TAEKWONDO">
    <text class="bf7eadd9-0603-4971-8804-4fed7a276f76" transform="translate(130.04 471.89) rotate(58.25)">T</text>
    <text class="bf7eadd9-0603-4971-8804-4fed7a276f76" transform="matrix(0.73, 0.69, -0.69, 0.73, 168.88, 529.39)">A</text>
    <text class="bf7eadd9-0603-4971-8804-4fed7a276f76" transform="matrix(0.87, 0.49, -0.49, 0.87, 216.15, 571.1)">E</text>
    <text class="bf7eadd9-0603-4971-8804-4fed7a276f76" transform="matrix(0.97, 0.26, -0.26, 0.97, 273.23, 600.2)">K</text>
    <text class="bf7eadd9-0603-4971-8804-4fed7a276f76" transform="translate(334.16 614.9) rotate(-1.03)">W</text>
    <text class="bf7eadd9-0603-4971-8804-4fed7a276f76" transform="translate(411.02 610.32) rotate(-16.56)">O</text>
    <text class="bf7eadd9-0603-4971-8804-4fed7a276f76" transform="translate(470.93 590.24) rotate(-31.04)">N</text>
    <text class="bf7eadd9-0603-4971-8804-4fed7a276f76" transform="matrix(0.7, -0.72, 0.72, 0.7, 525.65, 554.66)">D</text>
    <text class="bf7eadd9-0603-4971-8804-4fed7a276f76" transform="translate(570.19 505.27) rotate(-60.35)">O</text>
  </g>
</svg>
